<svg width="58" height="58" viewBox="0 0 58 58" fill="none" xmlns="http://www.w3.org/2000/svg">
<path d="M24.625 2.75H7.125C5.96468 2.75 4.85188 3.21094 4.03141 4.03141C3.21094 4.85188 2.75 5.96468 2.75 7.125V39.2083C2.75 40.3687 3.21094 41.4815 4.03141 42.3019C4.85188 43.1224 5.96468 43.5833 7.125 43.5833H50.875C52.0353 43.5833 53.1481 43.1224 53.9686 42.3019C54.7891 41.4815 55.25 40.3687 55.25 39.2083V24.625M29 43.5833V55.25" stroke="black" stroke-width="4" stroke-linecap="round" stroke-linejoin="round"/>
<path d="M40.6667 2.75L34.8333 8.58333L40.6667 14.4167M49.4167 2.75L55.25 8.58333L49.4167 14.4167M14.4167 55.25H43.5833" stroke="black" stroke-width="4" stroke-linecap="round" stroke-linejoin="round"/>
</svg>
