<svg width="55" height="55" viewBox="0 0 55 55" fill="none" xmlns="http://www.w3.org/2000/svg">
<g clip-path="url(#clip0_8_63)">
<path d="M37.9688 27.8316L51.8007 15.8144V39.7116L37.9688 27.8316ZM20.1454 29.8667L25.0026 34.0831C25.7649 34.7307 26.7589 35.122 27.845 35.122H27.8832H27.9125C29.0009 35.122 29.9948 34.7285 30.7661 34.0763L30.7594 34.0808L35.6166 29.8645L50.3818 42.545H5.38697L20.1454 29.8667ZM5.36673 12.9653H50.4087L28.7737 31.7556C28.5305 31.948 28.2294 32.0526 27.9192 32.0525H27.8877H27.8585C27.5473 32.0529 27.2451 31.9474 27.0017 31.7534L27.004 31.7556L5.36673 12.9653ZM3.97027 15.8122L17.7999 27.8294L3.97027 39.7026V15.8122ZM52.5428 10.323C52.0031 10.0532 51.369 9.89575 50.6966 9.89575H5.08114C4.42937 9.89591 3.78656 10.0476 3.20345 10.3388L3.22819 10.3275C2.53013 10.6718 1.94225 11.2045 1.53097 11.8653C1.11969 12.5261 0.901403 13.2888 0.900757 14.0671L0.900757 41.4387C0.901947 42.5464 1.34252 43.6084 2.12582 44.3917C2.90911 45.175 3.97115 45.6156 5.07889 45.6168H50.6898C51.7976 45.6156 52.8596 45.175 53.6429 44.3917C54.4262 43.6084 54.8668 42.5464 54.868 41.4387V14.0671C54.868 12.4323 53.9258 11.0156 52.554 10.3343L52.5293 10.323H52.5428Z" fill="#252525"/>
</g>
<defs>
<clipPath id="clip0_8_63">
<rect width="53.9695" height="53.9695" fill="white" transform="translate(0.900757 0.900879)"/>
</clipPath>
</defs>
</svg>
