<svg width="55" height="55" viewBox="0 0 55 55" fill="none" xmlns="http://www.w3.org/2000/svg">
<path d="M39.6055 33.7468C39.6055 36.0135 40.2456 36.9175 41.9193 36.9175C45.6498 36.9175 48.0252 32.1277 48.0252 24.1618C48.0252 11.9863 39.2199 6.15756 28.2266 6.15756C16.9172 6.15756 6.63093 13.7996 6.63093 28.2419C6.63093 42.0365 15.6291 49.549 29.4477 49.549C34.1397 49.549 37.289 49.0309 42.1068 47.4118L43.1405 51.7483C38.3843 53.3053 33.3014 53.7559 29.3835 53.7559C11.2586 53.7559 1.5507 43.7176 1.5507 28.2392C1.5507 12.6312 12.8011 2.01001 28.2908 2.01001C44.4233 2.01001 52.9689 11.7245 52.9689 23.641C52.9689 33.7441 49.8222 41.4509 39.9242 41.4509C35.4224 41.4509 32.4686 39.6375 32.0829 35.6195C30.926 40.0882 27.8409 41.4509 23.6605 41.4509C18.0688 41.4509 13.3769 37.1091 13.3769 28.3687C13.3769 19.5609 17.493 14.1208 24.8844 14.1208C28.805 14.1208 31.2474 15.6751 32.3347 18.1361L34.2013 14.7036H39.6002V33.7468H39.6055ZM31.7026 25.198C31.7026 21.6387 29.0648 20.1464 26.8795 20.1464C24.5014 20.1464 21.8689 22.0867 21.8689 27.7885C21.8689 32.322 23.8614 34.8477 26.8795 34.8477C29.0005 34.8477 31.7026 33.4877 31.7026 29.7314V25.198Z" fill="#252525"/>
</svg>
