<svg width="54" height="55" viewBox="0 0 54 55" fill="none" xmlns="http://www.w3.org/2000/svg">
<path d="M42.1435 6.87598C43.3183 6.87598 44.4451 7.34981 45.2758 8.19325C46.1066 9.03669 46.5733 10.1806 46.5733 11.3734V42.8556C46.5733 44.0484 46.1066 45.1924 45.2758 46.0358C44.4451 46.8792 43.3183 47.3531 42.1435 47.3531H11.1347C9.95985 47.3531 8.83311 46.8792 8.00235 46.0358C7.1716 45.1924 6.70489 44.0484 6.70489 42.8556V11.3734C6.70489 10.1806 7.1716 9.03669 8.00235 8.19325C8.83311 7.34981 9.95985 6.87598 11.1347 6.87598H42.1435ZM41.036 41.7313V29.813C41.036 27.8687 40.2753 26.0041 38.9212 24.6293C37.567 23.2545 35.7304 22.4821 33.8154 22.4821C31.9327 22.4821 29.74 23.6515 28.6768 25.4055V22.9094H22.4972V41.7313H28.6768V30.645C28.6768 28.9135 30.0501 27.4968 31.7555 27.4968C32.5779 27.4968 33.3667 27.8285 33.9482 28.4189C34.5297 29.0093 34.8564 29.8101 34.8564 30.645V41.7313H41.036ZM15.2987 19.3789C16.2856 19.3789 17.2321 18.9809 17.9299 18.2724C18.6278 17.5639 19.0198 16.603 19.0198 15.601C19.0198 13.5097 17.3586 11.8007 15.2987 11.8007C14.306 11.8007 13.3539 12.2011 12.6519 12.9138C11.9499 13.6265 11.5555 14.5931 11.5555 15.601C11.5555 17.6924 13.2389 19.3789 15.2987 19.3789ZM18.3775 41.7313V22.9094H12.2422V41.7313H18.3775Z" fill="#252525"/>
</svg>
