<svg width="70" height="70" viewBox="0 0 70 70" fill="none" xmlns="http://www.w3.org/2000/svg">
<path d="M22.4219 4.375C20.5364 4.375 18.7281 5.12402 17.3948 6.45729C16.0615 7.79055 15.3125 9.59885 15.3125 11.4844V58.5156C15.3125 60.4011 16.0615 62.2094 17.3948 63.5427C18.7281 64.876 20.5364 65.625 22.4219 65.625H47.5781C49.4636 65.625 51.2719 64.876 52.6052 63.5427C53.9385 62.2094 54.6875 60.4011 54.6875 58.5156V11.4844C54.6875 9.59885 53.9385 7.79055 52.6052 6.45729C51.2719 5.12402 49.4636 4.375 47.5781 4.375H22.4219ZM19.6875 11.4844C19.6875 9.975 20.9125 8.75 22.4219 8.75H47.5781C49.0875 8.75 50.3125 9.975 50.3125 11.4844V58.5156C50.3125 60.025 49.0875 61.25 47.5781 61.25H22.4219C20.9125 61.25 19.6875 60.025 19.6875 58.5156V11.4844ZM30.625 52.5C30.0448 52.5 29.4884 52.7305 29.0782 53.1407C28.668 53.5509 28.4375 54.1073 28.4375 54.6875C28.4375 55.2677 28.668 55.8241 29.0782 56.2343C29.4884 56.6445 30.0448 56.875 30.625 56.875H39.375C39.9552 56.875 40.5116 56.6445 40.9218 56.2343C41.332 55.8241 41.5625 55.2677 41.5625 54.6875C41.5625 54.1073 41.332 53.5509 40.9218 53.1407C40.5116 52.7305 39.9552 52.5 39.375 52.5H30.625Z" fill="black"/>
</svg>
