<svg width="70" height="70" viewBox="0 0 70 70" fill="none" xmlns="http://www.w3.org/2000/svg">
<path d="M64.1667 35C64.1667 18.8912 51.1088 5.83331 35 5.83331C18.8913 5.83331 5.83334 18.8912 5.83334 35C5.83334 51.1087 18.8913 64.1666 35 64.1666" stroke="black" stroke-width="3" stroke-linecap="round" stroke-linejoin="round"/>
<path d="M37.9167 5.97913C37.9167 5.97913 46.6667 17.5 46.6667 35M32.0833 64.0208C32.0833 64.0208 23.3333 52.5 23.3333 35C23.3333 17.5 32.0833 5.97913 32.0833 5.97913M7.67084 45.2083H35M7.67084 24.7916H62.3292" stroke="black" stroke-width="3" stroke-linecap="round" stroke-linejoin="round"/>
<path d="M63.8138 52.2579C65.2546 53.1445 65.1642 55.3 63.6825 55.4691L56.1954 56.3179L52.8384 63.0612C52.1734 64.4 50.1171 63.7437 49.7759 62.087L46.1154 44.2487C45.8267 42.8487 47.0867 41.9679 48.3029 42.7175L63.8138 52.2579Z" stroke="black" stroke-width="3"/>
</svg>
